<svg width="130" height="35" viewBox="0 0 130 35" fill="none" xmlns="http://www.w3.org/2000/svg">
<path d="M16.312 22.128C27.9281 22.08 38.68 18.816 44.2001 11.52L40.4081 8.016C37.432 12.048 32.536 14.88 26.248 16.272C28.936 13.584 31.3841 9.456 31.3841 5.712C31.3841 2.064 29.512 0 26.248 0C23.512 0 21.1121 1.536 18.0401 4.464L19.576 0.576H13.672L-0.199951 35.472H5.70405L12.952 17.088C16.12 10.416 21.5441 5.424 23.944 5.424C24.952 5.424 25.576 6.048 25.576 7.056C25.576 10.848 20.056 16.8 15.736 16.8C15.304 16.8 14.728 16.704 14.632 16.656L12.616 21.696C12.76 21.744 13.6241 22.128 16.312 22.128ZM48.6329 22.128C57.8969 22.128 65.2889 17.76 70.0409 11.52L66.2489 8.016C61.7849 13.344 56.1209 16.704 50.2649 16.704C46.617 16.704 44.409 15.84 44.409 13.632C44.841 13.68 45.3689 13.728 45.8489 13.728C53.241 13.728 57.561 9.792 57.561 5.328C57.561 2.304 54.921 0 50.841 0C44.5529 0 38.2169 6.336 38.2169 13.632C38.2169 18.72 41.9129 22.128 48.6329 22.128ZM44.6489 9.6C45.8489 7.104 48.201 5.136 50.361 5.136C51.609 5.136 52.2329 5.664 52.2329 6.528C52.2329 7.872 50.0729 9.648 45.8969 9.648C45.513 9.648 45.0809 9.648 44.6489 9.6ZM66.493 21.6C67.933 18.864 69.8531 16.512 72.205 14.4C74.701 19.344 78.013 22.032 82.477 22.032C89.245 22.032 95.245 17.904 99.997 11.52L96.205 8.016C92.125 13.44 87.517 16.8 83.917 16.8C80.989 16.8 79.021 14.496 77.101 10.944C80.701 8.4 84.733 6.528 88.573 5.136L86.989 0.288C81.949 1.824 76.141 5.04 71.581 9.024L74.941 0.576H69.085L60.6851 21.6H66.493ZM113.726 22.128C120.11 22.128 124.766 17.808 129.518 11.52L125.726 8.016C121.502 13.824 117.902 16.8 115.454 16.8C114.11 16.8 113.246 15.984 113.246 14.496C113.246 13.344 114.11 10.944 114.926 9.312L109.934 7.008C107.054 12.24 102.206 16.8 99.8061 16.8C98.8941 16.8 98.4621 16.224 98.4621 15.312C98.4621 12.144 104.942 5.424 108.638 5.424C109.742 5.424 110.414 5.808 110.942 6.384L115.742 3.84C114.062 1.2 112.046 0.0960007 109.022 0.0960007C102.014 0.0960007 92.7981 9.024 92.7981 16.56C92.7981 20.16 95.1021 22.032 98.5101 22.032C102.014 22.032 105.134 20.064 107.966 17.28C108.686 20.4 110.318 22.128 113.726 22.128Z" fill="#004CCC"/>
</svg>
