<svg width="16" height="16" viewBox="0 0 16 16" fill="none" xmlns="http://www.w3.org/2000/svg">
<path fill-rule="evenodd" clip-rule="evenodd" d="M7.33337 4.66667H8.66671V6H7.33337V4.66667ZM7.33337 7.33334H8.66671V11.3333H7.33337V7.33334ZM8.00004 1.33334C4.32004 1.33334 1.33337 4.32 1.33337 8C1.33337 11.68 4.32004 14.6667 8.00004 14.6667C11.68 14.6667 14.6667 11.68 14.6667 8C14.6667 4.32 11.68 1.33334 8.00004 1.33334ZM8.00004 13.3333C5.06004 13.3333 2.66671 10.94 2.66671 8C2.66671 5.06 5.06004 2.66667 8.00004 2.66667C10.94 2.66667 13.3334 5.06 13.3334 8C13.3334 10.94 10.94 13.3333 8.00004 13.3333Z" fill="#264054"/>
</svg>
