<svg width="20" height="20" viewBox="0 0 20 20" fill="none" xmlns="http://www.w3.org/2000/svg">
<path fill-rule="evenodd" clip-rule="evenodd" d="M5.00001 8.33334C4.08334 8.33334 3.33334 9.08334 3.33334 10C3.33334 10.9167 4.08334 11.6667 5.00001 11.6667C5.91668 11.6667 6.66668 10.9167 6.66668 10C6.66668 9.08334 5.91668 8.33334 5.00001 8.33334ZM15 8.33334C14.0833 8.33334 13.3333 9.08334 13.3333 10C13.3333 10.9167 14.0833 11.6667 15 11.6667C15.9167 11.6667 16.6667 10.9167 16.6667 10C16.6667 9.08334 15.9167 8.33334 15 8.33334ZM10 8.33334C9.08334 8.33334 8.33334 9.08334 8.33334 10C8.33334 10.9167 9.08334 11.6667 10 11.6667C10.9167 11.6667 11.6667 10.9167 11.6667 10C11.6667 9.08334 10.9167 8.33334 10 8.33334Z" fill="#004CCC"/>
</svg>
